<?xml version="1.0" standalone="no"?><!DOCTYPE svg PUBLIC "-//W3C//DTD SVG 1.1//EN" "http://www.w3.org/Graphics/SVG/1.1/DTD/svg11.dtd"><svg t="1514529374889" class="icon" style="" viewBox="0 0 1448 1024" version="1.1" xmlns="http://www.w3.org/2000/svg" p-id="1492" xmlns:xlink="http://www.w3.org/1999/xlink" width="181" height="128"><defs><style type="text/css"></style></defs><path d="M513.092326 650.316033c-0.034404-31.096035-0.581427-62.205833 0.251149-93.282946 0.306195-11.361914-5.265529-30.538691 12.96858-29.793845 17.059212 0.69496 11.578659 19.624029 11.714554 31.13388 0.626152 54.411611 1.162854 108.857627-0.056766 163.246875-0.569386 25.33681 9.013842 34.496869 34.118425 34.028975 94.894772-1.747722 79.476629 10.625669 80.95772-80.08558 0.319957-19.433087 0.307916-38.867894 0.159979-58.307862-0.135896-16.761618 7.601559-25.197473 24.64873-25.116624 30.125843 0.139336 60.256847 0.387045 90.370649-0.153098 20.50133-0.364682 27.144739 10.185298 26.905631 29.05416-0.443811 34.980245 0.553904 69.974251-0.215025 104.947614-0.467894 21.225534 8.513264 30.239376 29.515173 29.427443 18.437092-0.708722 36.956753-0.8687 55.378363 0.044725 23.150437 1.149093 30.512888-9.968553 30.203252-31.782395-0.768929-53.436259-0.397366-106.8966 0.051606-160.338019 0.08601-9.94275-2.569977-25.065018 12.569494-24.837952 14.883161 0.225346 12.130843 15.273646 12.187609 25.233598 0.381884 62.195511-0.147937 124.391023 0.411127 186.583094 0.182341 20.358554-6.815428 30.865529-28.615508 30.440639a2725.761806 2725.761806 0 0 0-107.851311 0.005161c-21.390673 0.43349-29.561618-9.1635-29.138449-29.934901 0.69496-33.99113-0.581427-68.033866 0.335439-102.024997 0.586588-21.930816-7.35557-31.266335-30.296143-31.875286-61.333692-1.615267-61.304448-2.409999-61.328531 58.990781-0.005161 25.271442-0.426609 50.541164 0.08429 75.793684 0.387045 18.960032-6.598683 29.222739-27.019165 28.940626a3943.476845 3943.476845 0 0 0-110.773928 0.029243c-19.971509 0.287273-27.948071-8.920951-27.652197-28.333396 0.514339-34.004892 0.137616-68.020105 0.115253-102.033597z" p-id="1493" fill="#999999"></path><path d="M458.687596 533.163607c-12.068915-1.419164-16.09074-8.556269-11.287945-18.278833 3.743153-7.580917 10.147453-14.112512 16.245558-20.23126 77.446795-77.672141 154.962398-155.278914 232.670663-232.701626 24.621207-24.530036 30.734794-24.64873 54.793495-0.69496 78.403225 78.083268 156.579384 156.412525 234.767585 234.719419 4.780433 4.780433 9.412928 9.855019 13.298858 15.352775 4.199006 5.945007 5.588926 12.834404-0.467894 18.473216-6.029297 5.597527-12.911813 3.791318-18.574708-0.629592-6.860153-5.344658-13.242091-11.379116-19.405564-17.532268-70.074022-69.953608-140.781078-139.289665-209.628598-210.42677-20.06784-20.735278-32.336299-22.593092-53.396694-0.758608-70.068862 72.656041-142.26733 143.256444-213.714071 214.581051-7.477705 7.465663-14.349899 15.99785-25.300685 18.127456zM911.082704 318.747695c0 11.575218 0.443811 23.171079-0.165139 34.713614-0.359522 6.872195-2.671469 13.945652-11.184733 14.478914-8.705927 0.541863-13.025346-6.543637-12.062035-13.142319 7.429539-51.010778-12.512727-73.60387-64.825696-65.341756-6.507512 1.023518-13.789114-2.919178-13.789114-11.547695-0.012041-8.618196 6.894557-11.537374 13.828679-11.697352 23.134955-0.538422 46.295713-0.679479 69.430668-0.225346 12.946217 0.25631 18.724365 8.597554 18.997877 20.922779 0.239108 10.610187 0.056767 21.227254 0.056766 31.837441l-0.287273 0.00172z" p-id="1494" fill="#999999"></path></svg>